<svg width="125" height="32" viewBox="0 0 125 32" fill="none" xmlns="http://www.w3.org/2000/svg">
<path fill-rule="evenodd" clip-rule="evenodd" d="M14.7059 24.3111C19.3083 24.3111 23.0392 20.5901 23.0392 16C23.0392 11.4099 19.3083 7.6889 14.7059 7.6889C10.1035 7.6889 6.37255 11.4099 6.37255 16C6.37255 20.5901 10.1035 24.3111 14.7059 24.3111ZM14.7059 30.6667C22.8277 30.6667 29.4118 24.1002 29.4118 16C29.4118 7.89983 22.8277 1.33334 14.7059 1.33334C6.58405 1.33334 0 7.89983 0 16C0 24.1002 6.58405 30.6667 14.7059 30.6667Z" fill="#513CCE"/>
<path d="M14.8741 16.3211C16.4056 14.7938 18.8886 14.7938 20.4201 16.3211L28.0457 23.9265C29.5772 25.4539 29.5772 27.9302 28.0457 29.4576C26.5143 30.985 24.0313 30.985 22.4998 29.4576L14.8741 21.8523C13.3427 20.3249 13.3427 17.8485 14.8741 16.3211Z" fill="#E24B7F"/>
<path opacity="0.7" d="M17.0154 23.9878L21.8585 28.8181C24.1815 27.526 26.1169 25.6239 27.4468 23.3292L22.6434 18.5385C21.7997 21.1648 19.6819 23.2224 17.0154 23.9878Z" fill="#513CCE"/>
<path d="M53.1551 24.0667C52.7308 24.5893 52.213 24.9876 51.6016 25.2613C51.0027 25.5351 50.3413 25.672 49.6176 25.672C48.6444 25.672 47.7647 25.4605 46.9786 25.0373C46.1925 24.6267 45.2941 23.8925 44.2834 22.8347C43.098 22.6853 42.0374 22.3058 41.1016 21.696C40.1782 21.0862 39.4545 20.3022 38.9305 19.344C38.4189 18.3733 38.1631 17.3031 38.1631 16.1333C38.1631 14.8516 38.4688 13.7005 39.0802 12.68C39.7041 11.6471 40.5588 10.8382 41.6444 10.2533C42.7424 9.66846 43.9715 9.37601 45.3315 9.37601C46.6916 9.37601 47.9144 9.66846 49 10.2533C50.0855 10.8382 50.9403 11.6471 51.5642 12.68C52.188 13.7005 52.5 14.8516 52.5 16.1333C52.5 17.6516 52.0695 18.9831 51.2085 20.128C50.3601 21.2729 49.2308 22.0693 47.8208 22.5173C48.1328 22.8409 48.4323 23.0711 48.7192 23.208C49.0187 23.3573 49.3369 23.432 49.6738 23.432C50.4848 23.432 51.1961 23.1085 51.8075 22.4613L53.1551 24.0667ZM41.2326 16.1333C41.2326 16.9422 41.4073 17.664 41.7567 18.2987C42.1185 18.9333 42.6114 19.4311 43.2353 19.792C43.8592 20.1405 44.5579 20.3147 45.3315 20.3147C46.1052 20.3147 46.8039 20.1405 47.4278 19.792C48.0517 19.4311 48.5383 18.9333 48.8877 18.2987C49.2495 17.664 49.4305 16.9422 49.4305 16.1333C49.4305 15.3245 49.2495 14.6027 48.8877 13.968C48.5383 13.3333 48.0517 12.8418 47.4278 12.4933C46.8039 12.1325 46.1052 11.952 45.3315 11.952C44.5579 11.952 43.8592 12.1325 43.2353 12.4933C42.6114 12.8418 42.1185 13.3333 41.7567 13.968C41.4073 14.6027 41.2326 15.3245 41.2326 16.1333Z" fill="#0E253C"/>
<path d="M64.7172 12.624V22.6667H61.9472V21.472C61.5604 21.9076 61.0987 22.2436 60.5622 22.48C60.0256 22.704 59.4454 22.816 58.8215 22.816C57.4989 22.816 56.4507 22.4365 55.6771 21.6773C54.9035 20.9182 54.5167 19.792 54.5167 18.2987V12.624H57.4365V17.8693C57.4365 19.4871 58.1165 20.296 59.4766 20.296C60.1753 20.296 60.7368 20.072 61.1611 19.624C61.5853 19.1636 61.7974 18.4853 61.7974 17.5893V12.624H64.7172Z" fill="#0E253C"/>
<path d="M72.2137 22.816C71.1531 22.816 70.1985 22.5982 69.35 22.1627C68.514 21.7147 67.8589 21.0987 67.3848 20.3147C66.9106 19.5307 66.6736 18.6409 66.6736 17.6453C66.6736 16.6498 66.9106 15.76 67.3848 14.976C67.8589 14.192 68.514 13.5822 69.35 13.1467C70.1985 12.6987 71.1531 12.4747 72.2137 12.4747C73.2743 12.4747 74.2226 12.6987 75.0586 13.1467C75.8946 13.5822 76.5497 14.192 77.0238 14.976C77.498 15.76 77.7351 16.6498 77.7351 17.6453C77.7351 18.6409 77.498 19.5307 77.0238 20.3147C76.5497 21.0987 75.8946 21.7147 75.0586 22.1627C74.2226 22.5982 73.2743 22.816 72.2137 22.816ZM72.2137 20.4267C72.9623 20.4267 73.5737 20.1778 74.0479 19.68C74.5345 19.1698 74.7778 18.4916 74.7778 17.6453C74.7778 16.7991 74.5345 16.1271 74.0479 15.6293C73.5737 15.1191 72.9623 14.864 72.2137 14.864C71.465 14.864 70.8474 15.1191 70.3607 15.6293C69.8741 16.1271 69.6308 16.7991 69.6308 17.6453C69.6308 18.4916 69.8741 19.1698 70.3607 19.68C70.8474 20.1778 71.465 20.4267 72.2137 20.4267Z" fill="#0E253C"/>
<path d="M86.1813 22.1813C85.8944 22.3929 85.5387 22.5547 85.1145 22.6667C84.7027 22.7662 84.266 22.816 83.8043 22.816C82.6065 22.816 81.6769 22.5111 81.0156 21.9013C80.3667 21.2916 80.0423 20.3956 80.0423 19.2133V15.088H78.4888V12.848H80.0423V10.4027H82.9621V12.848H85.4701V15.088H82.9621V19.176C82.9621 19.5991 83.0682 19.9289 83.2803 20.1653C83.5049 20.3893 83.8168 20.5013 84.2161 20.5013C84.6778 20.5013 85.0708 20.3769 85.3953 20.128L86.1813 22.1813Z" fill="#0E253C"/>
<path d="M87.8204 12.624H90.7402V22.6667H87.8204V12.624ZM89.2803 11.224C88.7437 11.224 88.307 11.0685 87.9701 10.7573C87.6332 10.4462 87.4647 10.0605 87.4647 9.60001C87.4647 9.13957 87.6332 8.75379 87.9701 8.44268C88.307 8.13157 88.7437 7.97601 89.2803 7.97601C89.8168 7.97601 90.2535 8.12535 90.5904 8.42401C90.9273 8.72268 91.0958 9.09601 91.0958 9.54401C91.0958 10.0293 90.9273 10.4338 90.5904 10.7573C90.2535 11.0685 89.8168 11.224 89.2803 11.224Z" fill="#0E253C"/>
<path d="M103.314 17.6827C103.314 17.72 103.295 17.9813 103.257 18.4667H95.6398C95.7771 19.0889 96.1015 19.5805 96.6131 19.9413C97.1246 20.3022 97.761 20.4827 98.5222 20.4827C99.0462 20.4827 99.5079 20.408 99.9072 20.2587C100.319 20.0969 100.7 19.848 101.049 19.512L102.602 21.192C101.654 22.2747 100.269 22.816 98.4473 22.816C97.3118 22.816 96.3074 22.5982 95.4339 22.1627C94.5605 21.7147 93.8867 21.0987 93.4125 20.3147C92.9384 19.5307 92.7013 18.6409 92.7013 17.6453C92.7013 16.6622 92.9321 15.7787 93.3938 14.9947C93.868 14.1982 94.5106 13.5822 95.3216 13.1467C96.1451 12.6987 97.0623 12.4747 98.073 12.4747C99.0587 12.4747 99.9509 12.6862 100.749 13.1093C101.548 13.5325 102.172 14.1422 102.621 14.9387C103.083 15.7227 103.314 16.6373 103.314 17.6827ZM98.0917 14.6773C97.4304 14.6773 96.8751 14.864 96.4259 15.2373C95.9767 15.6107 95.7022 16.1209 95.6024 16.768H100.562C100.462 16.1333 100.188 15.6293 99.7387 15.256C99.2895 14.8702 98.7405 14.6773 98.0917 14.6773Z" fill="#0E253C"/>
<path d="M111.378 12.4747C112.626 12.4747 113.63 12.848 114.391 13.5947C115.165 14.3413 115.552 15.4489 115.552 16.9173V22.6667H112.632V17.3653C112.632 16.5689 112.457 15.9778 112.108 15.592C111.758 15.1938 111.253 14.9947 110.592 14.9947C109.856 14.9947 109.269 15.2249 108.832 15.6853C108.396 16.1333 108.177 16.8053 108.177 17.7013V22.6667H105.257V12.624H108.046V13.8C108.433 13.3769 108.913 13.0533 109.487 12.8293C110.061 12.5929 110.692 12.4747 111.378 12.4747Z" fill="#0E253C"/>
<path d="M124.693 22.1813C124.406 22.3929 124.05 22.5547 123.626 22.6667C123.214 22.7662 122.778 22.816 122.316 22.816C121.118 22.816 120.188 22.5111 119.527 21.9013C118.878 21.2916 118.554 20.3956 118.554 19.2133V15.088H117V12.848H118.554V10.4027H121.474V12.848H123.982V15.088H121.474V19.176C121.474 19.5991 121.58 19.9289 121.792 20.1653C122.016 20.3893 122.328 20.5013 122.728 20.5013C123.189 20.5013 123.582 20.3769 123.907 20.128L124.693 22.1813Z" fill="#0E253C"/>
</svg>
