<svg width="30" height="30" viewBox="0 0 30 30" fill="none" xmlns="http://www.w3.org/2000/svg">
<path fill-rule="evenodd" clip-rule="evenodd" d="M14.7059 23.3111C19.3083 23.3111 23.0392 19.5901 23.0392 15C23.0392 10.4099 19.3083 6.6889 14.7059 6.6889C10.1035 6.6889 6.37255 10.4099 6.37255 15C6.37255 19.5901 10.1035 23.3111 14.7059 23.3111ZM14.7059 29.6667C22.8277 29.6667 29.4118 23.1002 29.4118 15C29.4118 6.89983 22.8277 0.333344 14.7059 0.333344C6.58405 0.333344 0 6.89983 0 15C0 23.1002 6.58405 29.6667 14.7059 29.6667Z" fill="#513CCE"/>
<path d="M14.8741 15.3211C16.4056 13.7938 18.8886 13.7938 20.4201 15.3211L28.0457 22.9265C29.5772 24.4539 29.5772 26.9302 28.0457 28.4576C26.5143 29.985 24.0313 29.985 22.4998 28.4576L14.8741 20.8523C13.3427 19.3249 13.3427 16.8485 14.8741 15.3211Z" fill="#E24B7F"/>
<path opacity="0.7" d="M17.0154 22.9878L21.8585 27.8181C24.1815 26.526 26.1169 24.6239 27.4468 22.3292L22.6434 17.5385C21.7997 20.1648 19.6819 22.2224 17.0154 22.9878Z" fill="#513CCE"/>
</svg>
